# Blender v2.80 (sub 75) OBJ File: ''
# www.blender.org
o Shape_IndexedFaceSet.122
v 0.060554 -0.052138 0.033578
v 0.131657 -0.051271 -0.013812
v 0.132817 -0.051200 0.004256
v -0.040545 -0.014402 0.036354
v -0.047748 -0.001236 0.030815
v -0.046209 -0.009335 0.030303
v 0.015964 -0.024700 0.056850
v -0.003029 -0.024349 0.054976
v 0.084373 -0.051703 0.044491
v 0.118843 0.066226 0.018897
v 0.124140 0.062417 0.007480
v 0.120382 0.067765 0.009015
v -0.032665 0.035532 0.022189
v -0.034011 0.031915 0.031041
v -0.024283 0.038533 0.034450
v 0.069290 0.079791 0.024598
v 0.065197 0.078721 0.025727
v 0.068920 0.076011 0.031397
v -0.023828 0.041870 0.020534
v 0.056732 0.081902 -0.003653
v -0.028078 0.039719 -0.014806
v -0.037055 -0.031396 -0.014800
v -0.024238 -0.042087 -0.014800
v -0.034346 -0.033773 0.016506
v -0.042910 0.022330 0.020144
v -0.037809 0.030053 -0.014800
v -0.043982 0.019628 -0.014800
v 0.059360 0.080842 0.015556
v 0.093617 0.071816 0.036672
v 0.022615 0.023381 0.056508
v 0.041798 0.018772 0.056048
v 0.105917 0.030340 0.039722
v 0.110920 0.026554 0.037069
v 0.107508 0.047282 0.036778
v -0.038581 -0.000395 0.040611
v -0.046953 0.008243 0.030816
v 0.005611 0.024935 0.056043
v 0.079354 0.073602 0.036001
v -0.008905 0.023287 0.054275
v 0.102772 0.074671 0.026083
v 0.096915 0.070548 0.035996
v 0.108809 0.071264 0.026699
v -0.029148 0.024632 0.041843
v -0.017233 0.032478 0.043931
v -0.042413 0.021509 0.030191
v -0.039808 0.013441 0.037133
v -0.019092 0.016753 0.052261
v -0.025432 0.001535 0.050613
v -0.021390 -0.013771 0.051570
v -0.046551 0.012229 0.014670
v -0.047398 0.008771 -0.014800
v 0.095211 0.078056 -0.022610
v 0.077085 0.077407 -0.032126
v 0.074160 0.079677 -0.026695
v 0.108325 0.075413 -0.014266
v 0.120656 0.067086 -0.004703
v -0.043643 -0.020329 0.028863
v -0.044074 -0.019423 -0.014800
v -0.021434 -0.043182 0.020846
v -0.028567 -0.038536 0.020666
v -0.024949 -0.039180 0.031075
v 0.128361 -0.051200 0.018920
v 0.123282 -0.051200 0.026877
v 0.052868 0.079398 0.008105
v 0.085286 -0.007220 -0.045132
v -0.047398 -0.008674 -0.014800
v 0.095059 0.023393 -0.043255
v 0.093377 0.055167 -0.039971
v 0.101744 0.046375 -0.039173
v -0.046967 -0.010245 0.023439
v -0.034940 0.025225 0.036338
v 0.095781 0.075379 -0.029919
v 0.102437 0.074809 -0.026285
v 0.096242 0.070363 -0.035966
v 0.055322 0.079831 -0.014837
v 0.069389 0.078935 -0.029097
v 0.109733 -0.003079 0.038947
v 0.115177 0.007546 0.035021
v 0.096758 0.048620 0.040262
v -0.011095 -0.022345 0.053987
v 0.100932 0.008121 0.042406
v 0.074259 0.081623 0.016148
v 0.084528 0.077514 0.029873
v -0.048888 -0.000461 -0.008865
v 0.098970 -0.051200 0.043368
v -0.027550 -0.024665 0.043049
v -0.019800 -0.035863 0.039155
v -0.011145 -0.044801 0.031974
v -0.010940 -0.047419 0.019248
v 0.130529 -0.003831 -0.014739
v 0.130949 0.025283 -0.007883
v 0.133362 0.003724 0.003457
v 0.077371 -0.051552 -0.043187
v 0.122374 -0.051200 -0.028728
v 0.123521 0.018107 -0.026901
v 0.124241 0.059229 0.014331
v -0.038640 0.028546 0.015122
v 0.061300 0.082360 0.008145
v -0.028772 0.013476 0.046656
v 0.064621 0.081817 -0.016735
v 0.109917 -0.051208 -0.040127
v 0.095556 -0.051312 -0.043941
v 0.100583 -0.006343 -0.043072
v 0.118029 0.051701 -0.028363
v 0.124455 0.045525 -0.020634
v 0.119646 0.032894 -0.030278
v -0.039914 -0.026626 0.028585
v -0.030178 -0.035943 0.030824
v -0.032937 -0.025570 0.038041
v 0.084871 0.072240 -0.038124
v 0.083224 0.048097 -0.041292
v 0.074833 0.073864 -0.034880
v 0.128263 0.053515 0.002154
v 0.114818 0.070781 0.015422
v 0.106038 0.075677 0.015534
v -0.032774 -0.012828 0.043541
v 0.115345 -0.051208 0.036076
v 0.122159 0.011933 0.028423
v -0.008925 -0.037907 0.041267
v -0.015262 -0.032573 0.044140
v -0.009836 -0.047341 -0.014800
v 0.042279 -0.051246 -0.025801
v 0.130726 0.040682 -0.001361
v 0.130330 0.040271 0.006147
v 0.124843 0.034018 0.022951
v 0.126139 0.048996 0.014538
v 0.122841 0.048327 0.022423
v 0.071865 0.081608 -0.013317
v 0.088170 0.079674 0.021394
v 0.115715 0.007912 -0.034866
v 0.115801 0.051784 0.030094
v 0.104505 0.068014 0.033362
v 0.125473 0.061477 -0.004856
v 0.120867 0.064903 -0.014311
v 0.110570 0.039783 -0.036307
v 0.104343 0.068339 -0.033529
v 0.127935 0.049846 -0.009147
v 0.127766 0.028823 -0.017018
v 0.083557 0.021043 -0.043738
v 0.129121 -0.003731 0.017942
v 0.043869 -0.018736 0.055561
v 0.117260 0.059947 0.025450
v 0.128984 0.013367 0.016963
v 0.115750 0.069652 -0.019745
v 0.122688 0.059485 -0.017196
v 0.109869 -0.006752 -0.039379
v 0.104541 0.021953 -0.040471
v 0.111784 0.064625 -0.029173
v 0.088048 -0.051194 -0.044587
v 0.118967 0.034942 0.030581
v 0.117464 0.062832 -0.022825
vn 0.0162 -0.9998 0.0113
vn 0.0142 -0.9999 0.0030
vn 0.0147 -0.9999 0.0043
vn -0.7905 -0.1871 0.5832
vn -0.0899 -0.5937 0.7997
vn 0.8273 0.5211 0.2100
vn -0.6005 0.7680 0.2225
vn -0.0957 0.8722 0.4797
vn -0.4452 0.8954 -0.0010
vn -0.6405 -0.7679 -0.0029
vn -0.6369 -0.7709 -0.0010
vn -0.6396 -0.7687 -0.0024
vn -0.8604 0.5095 -0.0130
vn -0.4057 0.8917 0.2006
vn -0.7047 0.7095 -0.0071
vn 0.0869 0.2658 0.9601
vn 0.5231 0.0980 0.8466
vn -0.7314 0.0613 0.6792
vn -0.1630 0.5766 0.8006
vn 0.3730 0.7577 0.5355
vn -0.4757 0.5370 0.6967
vn -0.7425 0.2827 0.6072
vn -0.2326 -0.0040 0.9726
vn -0.2434 -0.0036 0.9699
vn -0.2406 -0.0038 0.9706
vn -0.1658 0.9420 0.2916
vn -0.9539 0.3001 -0.0078
vn 0.1356 0.9370 -0.3221
vn 0.1390 0.9343 -0.3284
vn 0.1343 0.9380 -0.3197
vn 0.5748 0.8178 -0.0290
vn -0.8622 -0.5066 -0.0018
vn -0.8627 -0.5057 -0.0020
vn -0.8610 -0.5086 -0.0011
vn -0.5460 -0.8376 0.0172
vn -0.5429 -0.8284 0.1378
vn 0.0158 -0.9998 0.0092
vn 0.0163 -0.9998 0.0126
vn -0.4325 0.9003 0.0496
vn -0.2228 -0.0008 -0.9749
vn -0.2228 -0.0023 -0.9749
vn -0.2229 0.0000 -0.9749
vn 0.2098 0.1115 -0.9714
vn -0.9721 -0.1931 0.1330
vn -0.6378 0.3110 0.7046
vn -0.6835 0.5091 0.5231
vn -0.7033 0.1140 0.7017
vn -0.7764 0.6159 0.1336
vn 0.3759 0.7271 -0.5745
vn -0.3902 0.8110 -0.4359
vn 0.5436 0.0314 0.8387
vn 0.3205 0.1329 0.9379
vn -0.1213 -0.0004 0.9926
vn -0.1209 -0.0005 0.9927
vn -0.1212 -0.0004 0.9926
vn 0.2353 0.0644 0.9698
vn -0.0586 0.9822 0.1785
vn -0.0588 0.9811 0.1845
vn -0.0587 0.9820 0.1794
vn 0.3897 0.8925 0.2270
vn -0.3482 0.8575 0.3787
vn -0.9877 0.1560 0.0139
vn -0.9866 0.1627 0.0102
vn -0.9873 0.1582 0.0127
vn 0.0826 -0.2341 0.9687
vn -0.4827 -0.3537 0.8012
vn -0.4117 -0.5402 0.7340
vn -0.4159 -0.5372 0.7338
vn -0.4158 -0.5373 0.7338
vn -0.9603 -0.2422 0.1382
vn -0.2147 0.6379 0.7396
vn 0.3689 0.0029 0.9294
vn -0.1042 -0.9745 0.1988
vn 0.9863 0.0237 -0.1633
vn 0.9862 0.0243 -0.1636
vn 0.9865 0.0209 -0.1621
vn -0.2460 -0.0761 -0.9663
vn 0.8490 -0.0001 -0.5284
vn 0.8366 0.5013 0.2209
vn -0.4082 0.8945 0.1823
vn -0.7934 0.6043 0.0734
vn -0.0316 0.8544 0.5187
vn -0.0588 0.9809 0.1855
vn -0.6255 0.2912 0.7238
vn -0.4459 0.4595 0.7681
vn -0.4390 0.4604 0.7716
vn -0.4465 0.4595 0.7678
vn -0.2354 0.9605 -0.1482
vn 0.9866 0.0203 -0.1620
vn 0.2567 -0.0100 -0.9664
vn 0.8105 0.1279 -0.5716
vn -0.9835 -0.1811 0.0036
vn -0.6446 -0.5447 0.5365
vn -0.3801 -0.8982 0.2208
vn 0.0066 -0.9999 -0.0084
vn 0.0095 -0.9999 -0.0095
vn 0.0091 -0.9999 -0.0095
vn -0.3743 -0.9273 0.0010
vn -0.8220 0.5694 0.0058
vn -0.9483 0.3128 0.0536
vn -0.7214 -0.1068 0.6842
vn -0.2318 0.1421 -0.9623
vn -0.2314 0.1384 -0.9630
vn -0.2316 0.1407 -0.9626
vn -0.0326 0.9991 -0.0262
vn -0.1550 0.6658 -0.7298
vn -0.7020 -0.3880 0.5973
vn -0.9938 -0.1078 0.0264
vn -0.9863 0.1650 0.0090
vn 0.1831 0.1745 0.9675
vn 0.0033 0.3748 0.9271
vn 0.0070 0.3713 0.9285
vn 0.0048 0.3734 0.9277
vn 0.9281 0.3426 0.1458
vn 0.4764 0.8490 0.2285
vn -0.5294 0.1298 0.8384
vn -0.5004 -0.5804 0.6424
vn -0.5001 -0.5803 0.6428
vn -0.5016 -0.5795 0.6424
vn -0.5683 -0.2829 0.7726
vn -0.9699 0.0000 -0.2435
vn 0.7571 -0.0025 0.6533
vn -0.2131 -0.6473 0.7318
vn -0.2452 -0.6187 0.7464
vn 0.0249 0.0037 0.9997
vn -0.8036 -0.2578 0.5364
vn -0.5790 -0.1023 0.8089
vn -0.4170 -0.5365 0.7337
vn -0.3479 -0.7684 0.5371
vn -0.6686 -0.7390 0.0826
vn -0.2594 -0.7450 0.6146
vn -0.5946 -0.0894 0.7990
vn -0.6997 -0.7080 0.0964
vn -0.2927 0.7737 0.5620
vn 0.6817 0.0151 0.7314
vn 0.6813 0.0165 0.7318
vn 0.6788 0.0237 0.7340
vn -0.0264 0.0108 0.9996
vn -0.0750 -0.9972 -0.0049
vn -0.0757 -0.9971 -0.0047
vn -0.0743 -0.9972 -0.0031
vn -0.3427 -0.9394 -0.0133
vn 0.9953 0.0784 0.0568
vn 0.2262 0.0083 0.9740
vn 0.9089 0.1416 0.3922
vn -0.3292 0.5344 -0.7785
vn -0.0310 0.9707 -0.2383
vn -0.2703 0.2715 -0.9237
vn 0.0401 0.9294 -0.3668
vn -0.6921 0.3292 0.6424
vn -0.9425 0.3260 0.0733
vn -0.4386 0.4606 0.7717
vn -0.5532 0.5338 0.6396
vn 0.1527 0.8381 -0.5237
vn 0.0368 0.9992 -0.0169
vn -0.1217 -0.0001 0.9926
vn -0.1940 0.6172 0.7625
vn 0.0598 0.9677 0.2450
vn 0.1003 0.9870 -0.1253
vn 0.0907 0.9877 -0.1271
vn 0.0996 0.9871 -0.1256
vn 0.2112 0.9216 0.3255
vn -0.3300 0.9380 0.1058
vn 0.7098 0.0068 -0.7044
vn 0.5407 0.2124 0.8139
vn 0.7504 0.6480 -0.1307
vn 0.7495 0.6489 -0.1309
vn 0.7467 0.6520 -0.1316
vn 0.5481 0.1986 -0.8125
vn 0.9379 0.1150 -0.3274
vn 0.8354 0.0953 -0.5414
vn 0.5635 0.0164 0.8259
vn -0.2228 -0.0030 -0.9749
vn -0.2215 0.0697 -0.9727
vn -0.3438 -0.9209 0.1839
vn -0.6208 -0.3040 0.7227
vn -0.6195 -0.3044 0.7235
vn -0.6127 -0.3067 0.7284
vn 0.2403 0.7560 -0.6088
vn 0.2000 0.9798 -0.0040
vn 0.8506 0.0267 0.5251
vn 0.4891 0.0356 0.8715
vn 0.4330 0.6678 0.6054
vn -0.0983 -0.0043 0.9952
vn 0.0483 -0.0103 0.9988
vn 0.3810 0.2038 0.9018
vn 0.7656 0.2092 0.6083
vn 0.9420 0.1805 0.2829
vn 0.9721 0.2133 -0.0975
vn 0.0903 -0.2122 0.9730
vn -0.5802 0.8142 0.0202
vn 0.0084 0.3699 0.9290
vn -0.4521 -0.6862 0.5698
vn 0.0315 0.0512 -0.9982
vn -0.5264 -0.8401 0.1310
vn -0.2530 -0.6936 -0.6745
vn 0.0153 -0.9993 0.0355
vn -0.0670 -0.9977 0.0056
vn 0.7583 0.6517 -0.0171
vn 0.6751 -0.0006 -0.7377
vn 0.0152 -0.9987 0.0482
vn -0.1200 -0.9669 -0.2251
vn -0.1253 -0.6779 0.7244
vn 0.9365 0.0895 0.3391
vn 0.9205 0.3844 0.0702
vn 0.8235 0.5655 0.0459
vn -0.7654 0.6434 0.0111
vn -0.4308 0.8955 -0.1115
vn -0.2647 0.7113 0.6511
vn -0.6479 0.1312 0.7504
vn -0.5841 0.5522 0.5949
vn -0.0369 0.8743 0.4840
vn 0.0234 0.0903 -0.9956
vn -0.5514 0.8151 0.1774
vn 0.4595 0.8469 -0.2677
vn 0.9135 0.2025 -0.3529
vn 0.8629 0.4308 -0.2643
vn 0.3234 0.1785 0.9293
vn 0.5986 0.7479 0.2869
vn 0.9495 0.0588 -0.3081
vn 0.5326 0.0478 -0.8450
vn 0.4597 0.0516 -0.8866
vn -0.2312 0.1369 -0.9632
vn 0.9560 0.0244 0.2925
vn 0.5742 0.2282 -0.7863
vn 0.5871 0.8077 -0.0537
vn 0.0856 -0.0070 -0.9963
vn -0.6359 -0.7718 -0.0003
vn 0.1324 0.0185 -0.9910
vn -0.9960 0.0835 0.0302
vn -0.6583 -0.1329 0.7409
vn -0.0058 -0.9999 -0.0133
vn -0.2609 -0.6794 0.6859
vn -0.2823 -0.3384 -0.8976
vn 0.4932 0.8694 0.0302
vn 0.1403 0.9332 -0.3309
vn 0.9226 0.2894 -0.2549
vn 0.1453 0.9893 -0.0131
vn 0.1437 0.9895 -0.0124
vn 0.1452 0.9893 -0.0130
vn 0.0886 0.9879 -0.1274
vn -0.6113 0.0896 0.7863
vn 0.0557 0.1056 -0.9929
vn -0.8605 -0.5095 -0.0007
vn 0.0064 -0.9999 -0.0087
vn 0.9613 0.0600 0.2688
vn 0.6783 0.4417 0.5871
vn 0.4871 0.8733 0.0119
vn 0.2324 0.8417 0.4874
vn 0.2642 0.1824 0.9471
vn 0.0742 0.8110 0.5804
vn 0.2310 0.0871 0.9690
vn 0.7930 0.1329 0.5946
vn 0.6314 0.2951 0.7171
vn 0.8740 0.0348 0.4846
vn 0.7623 0.1614 0.6268
vn 0.6448 0.7336 0.2147
vn 0.9311 0.1140 0.3465
vn 0.9640 0.2435 -0.1070
vn -0.9554 -0.2954 -0.0014
vn -0.9502 -0.3116 0.0029
vn -0.6989 -0.4388 0.5647
vn -0.5094 -0.5751 0.6401
vn -0.7731 -0.6340 0.0188
vn -0.2187 0.0347 -0.9752
vn 0.2156 -0.0008 0.9765
vn 0.5777 0.1319 0.8056
vn 0.8339 0.0013 0.5519
vn 0.9531 0.2135 0.2146
vn 0.4068 -0.0071 0.9135
vn -0.1040 -0.9586 0.2653
vn -0.1364 -0.7798 0.6110
vn 0.8990 0.0457 -0.4356
vn 0.8751 0.0114 -0.4838
vn 0.9979 -0.0108 -0.0640
vn -0.1959 0.0032 0.9806
vn -0.5531 0.3142 0.7716
vn 0.0601 0.9982 -0.0054
vn 0.2507 0.9152 -0.3156
vn 0.0366 0.9645 0.2614
vn -0.3304 0.9394 0.0915
vn 0.1432 0.9896 -0.0121
vn 0.9029 0.1754 0.3925
vn 0.9605 -0.0055 0.2784
vn 0.9577 -0.0084 0.2878
vn 0.9597 -0.0063 0.2811
vn 0.6161 0.1320 -0.7765
vn 0.6782 0.0252 0.7344
vn 0.7943 0.0534 0.6052
vn 0.6083 0.5652 -0.5572
vn 0.8147 0.3077 0.4916
vn 0.5140 0.7025 -0.4922
vn 0.8156 0.3957 -0.4222
vn 0.7460 0.6528 -0.1319
vn 0.0099 -0.9999 -0.0102
vn 0.3275 0.1986 -0.9237
vn 0.5884 0.0142 -0.8084
vn 0.0400 0.1273 -0.9911
vn -0.9412 0.3378 0.0028
vn -0.2634 -0.1544 -0.9522
vn 0.0036 -0.9752 -0.2215
vn 0.4641 0.8604 0.2104
vn 0.8241 0.2655 0.5003
vn 0.5569 0.1032 0.8242
vn 0.5966 0.0473 0.8011
vn 0.6552 0.4199 0.6280
vn 0.0164 -0.9998 0.0133
vn 0.9510 0.1017 -0.2920
vn 0.3913 0.0233 0.9200
vn -0.6120 -0.3068 0.7289
vn 0.9568 -0.0093 0.2907
vn 0.9694 0.1076 -0.2209
vn -0.2321 -0.0045 0.9727
vn -0.7935 0.6021 0.0885
vn 0.2689 0.9474 0.1736
vn 0.2209 0.9753 0.0083
vn 0.8429 -0.0024 0.5380
vn 0.7310 0.4249 -0.5340
vn 0.7662 0.4832 -0.4238
vn -0.2214 0.0851 -0.9715
vn 0.2157 0.2106 -0.9535
vn 0.3701 0.0160 -0.9289
vn 0.5822 0.0573 -0.8110
vn 0.7007 0.0207 -0.7132
vn 0.7485 0.3255 -0.5778
vn 0.8840 0.0753 -0.4614
vn 0.3686 0.0914 -0.9251
vn 0.1332 0.0043 -0.9911
vn 0.9931 0.0575 -0.1019
vn 0.8307 0.2300 -0.5069
vn 0.7817 0.3092 -0.5416
vn -0.2590 0.9138 -0.3129
vn 0.4219 0.1785 -0.8889
vn 0.3563 0.7415 -0.5685
vn 0.3147 0.9277 -0.2008
vn 0.2912 0.1921 -0.9372
vn 0.0321 -0.9990 -0.0302
vn 0.9832 0.1719 0.0613
vn 0.3706 0.0335 -0.9282
vn 0.2925 0.0841 -0.9526
vn -0.2619 0.2456 -0.9333
vn -0.1293 -0.0204 -0.9914
vn -0.1325 0.6594 -0.7400
vn 0.2880 0.0476 -0.9564
s 1
f 1//1 2//2 3//3
f 4//4 5//4 6//4
f 7//5 8//5 9//5
f 10//6 11//6 12//6
f 13//7 14//7 15//7
f 16//8 17//8 18//8
f 19//9 20//9 21//9
f 22//10 23//11 24//12
f 25//13 26//13 27//13
f 19//14 15//14 28//14
f 13//15 21//15 26//15
f 29//16 30//16 31//16
f 32//17 33//17 34//17
f 35//18 36//18 5//18
f 37//19 38//19 39//19
f 40//20 41//20 42//20
f 15//21 43//21 44//21
f 45//22 36//22 46//22
f 47//23 48//24 49//25
f 16//26 28//26 17//26
f 50//27 27//27 51//27
f 52//28 53//29 54//30
f 55//31 12//31 56//31
f 57//32 58//33 22//34
f 23//35 59//35 60//35
f 60//36 59//36 61//36
f 1//1 62//37 63//38
f 19//39 64//39 20//39
f 65//40 66//41 51//42
f 67//43 68//43 69//43
f 5//44 70//44 6//44
f 43//45 71//45 46//45
f 45//46 71//46 14//46
f 35//47 46//47 36//47
f 45//48 14//48 13//48
f 72//49 73//49 74//49
f 75//50 76//50 21//50
f 77//51 78//51 33//51
f 32//52 34//52 79//52
f 37//53 39//54 80//55
f 32//56 31//56 81//56
f 16//57 82//58 28//59
f 29//60 41//60 83//60
f 15//61 17//61 28//61
f 36//62 50//63 84//64
f 7//65 9//65 85//65
f 86//66 80//66 49//66
f 86//67 87//68 80//69
f 57//70 6//70 70//70
f 44//71 39//71 18//71
f 85//72 77//72 81//72
f 1//73 88//73 89//73
f 90//74 91//75 92//76
f 1//1 3//3 62//37
f 93//77 58//77 66//77
f 2//78 94//78 95//78
f 10//79 96//79 11//79
f 19//80 28//80 64//80
f 13//81 97//81 25//81
f 18//82 38//82 83//82
f 98//83 28//59 82//58
f 43//84 46//84 99//84
f 44//85 47//86 39//87
f 20//88 100//88 75//88
f 90//74 92//76 2//89
f 101//90 102//90 103//90
f 104//91 105//91 106//91
f 84//92 66//92 70//92
f 107//93 108//93 109//93
f 59//94 88//94 61//94
f 1//95 102//96 94//97
f 89//98 59//98 23//98
f 25//99 97//99 26//99
f 36//100 25//100 50//100
f 4//101 35//101 5//101
f 110//102 111//103 26//104
f 20//105 98//105 100//105
f 112//106 76//106 53//106
f 4//107 57//107 109//107
f 5//108 84//108 70//108
f 84//64 50//63 51//109
f 29//110 31//110 79//110
f 29//111 38//112 30//113
f 96//114 113//114 11//114
f 40//115 114//115 115//115
f 47//116 99//116 48//116
f 86//117 109//118 108//119
f 86//120 49//120 116//120
f 84//121 51//121 66//121
f 117//122 63//122 118//122
f 119//123 8//123 120//123
f 8//124 80//124 120//124
f 7//125 31//125 30//125
f 4//126 6//126 57//126
f 48//127 116//127 49//127
f 87//68 120//128 80//69
f 87//129 61//129 88//129
f 108//130 24//130 60//130
f 87//131 88//131 119//131
f 35//132 116//132 48//132
f 107//133 24//133 108//133
f 15//134 18//134 17//134
f 117//135 118//136 78//137
f 7//138 30//138 37//138
f 89//139 121//140 122//141
f 89//142 23//142 121//142
f 92//143 123//143 124//143
f 85//144 81//144 31//144
f 125//145 126//145 127//145
f 21//146 76//146 112//146
f 76//147 100//147 54//147
f 21//148 112//148 26//148
f 76//149 54//149 53//149
f 45//150 46//150 71//150
f 45//151 25//151 36//151
f 44//85 43//152 47//86
f 15//153 71//153 43//153
f 110//154 53//154 72//154
f 98//155 128//155 100//155
f 37//53 80//55 8//156
f 18//157 39//157 38//157
f 16//158 83//158 82//158
f 52//159 54//160 128//161
f 40//162 129//162 83//162
f 98//163 64//163 28//163
f 95//164 94//164 130//164
f 131//165 132//165 34//165
f 133//166 134//167 56//168
f 104//169 135//169 136//169
f 105//170 137//170 138//170
f 106//171 105//171 95//171
f 117//172 78//172 77//172
f 65//40 93//173 66//41
f 139//174 51//174 27//174
f 89//175 88//175 59//175
f 86//176 116//177 109//178
f 110//179 72//179 74//179
f 52//180 129//180 55//180
f 125//181 118//181 140//181
f 32//182 77//182 33//182
f 41//183 132//183 42//183
f 7//184 37//184 8//184
f 7//185 141//185 31//185
f 34//186 132//186 41//186
f 131//187 127//187 142//187
f 124//188 96//188 126//188
f 137//189 113//189 123//189
f 7//190 85//190 141//190
f 19//191 21//191 13//191
f 37//192 30//113 38//112
f 87//193 108//193 61//193
f 65//194 139//194 67//194
f 108//195 60//195 61//195
f 23//196 93//196 121//196
f 1//197 117//197 85//197
f 1//198 89//139 122//141
f 133//199 56//199 12//199
f 101//200 130//200 94//200
f 122//201 93//201 102//201
f 122//202 121//202 93//202
f 9//203 8//203 119//203
f 124//204 125//204 143//204
f 133//205 11//205 113//205
f 133//206 12//206 11//206
f 13//207 26//207 97//207
f 20//208 75//208 21//208
f 15//209 44//209 18//209
f 35//210 99//210 46//210
f 15//211 14//211 71//211
f 16//212 18//212 83//212
f 111//213 67//213 139//213
f 19//214 13//214 15//214
f 55//215 144//215 73//215
f 145//216 137//216 105//216
f 133//217 145//217 134//217
f 34//218 41//218 79//218
f 10//219 114//219 42//219
f 90//220 138//220 91//220
f 135//221 130//221 146//221
f 135//222 146//222 147//222
f 111//103 27//223 26//104
f 92//224 143//224 140//224
f 104//225 136//225 148//225
f 55//226 56//226 144//226
f 65//227 102//227 149//227
f 23//11 60//228 24//12
f 65//229 67//229 103//229
f 5//230 36//230 84//230
f 4//231 116//231 35//231
f 1//232 122//232 102//232
f 87//233 119//233 120//233
f 22//234 93//234 23//234
f 55//235 115//235 12//235
f 52//28 72//236 53//29
f 133//237 137//237 145//237
f 52//238 128//239 129//240
f 54//160 100//241 128//161
f 35//242 48//242 99//242
f 111//243 68//243 67//243
f 57//32 22//34 107//244
f 1//95 94//97 2//245
f 92//246 124//246 143//246
f 10//247 42//247 142//247
f 114//248 12//248 115//248
f 40//249 83//249 41//249
f 29//250 79//250 41//250
f 29//251 83//251 38//251
f 32//252 79//252 31//252
f 125//253 127//253 150//253
f 131//254 142//254 132//254
f 125//255 140//255 143//255
f 131//256 150//256 127//256
f 10//257 12//257 114//257
f 124//258 126//258 125//258
f 133//259 113//259 137//259
f 70//260 66//260 58//260
f 57//261 70//261 58//261
f 57//262 107//262 109//262
f 86//117 108//119 87//263
f 107//264 22//264 24//264
f 65//265 51//265 139//265
f 85//266 31//266 141//266
f 131//267 34//267 150//267
f 140//268 118//268 63//268
f 124//269 113//269 96//269
f 117//270 77//270 85//270
f 1//271 9//271 88//271
f 9//272 119//272 88//272
f 90//273 95//273 138//273
f 90//274 2//274 95//274
f 92//275 3//275 2//275
f 47//276 80//276 39//276
f 43//277 99//277 47//277
f 98//278 82//278 128//278
f 52//279 73//279 72//279
f 129//280 82//280 83//280
f 20//281 64//281 98//281
f 129//240 128//239 82//282
f 96//283 127//283 126//283
f 92//284 140//285 3//286
f 104//287 106//287 135//287
f 150//288 78//137 118//136
f 125//289 150//289 118//289
f 144//290 148//290 136//290
f 10//291 142//291 96//291
f 144//292 136//292 73//292
f 144//293 134//293 151//293
f 144//294 56//168 134//167
f 101//295 94//97 102//96
f 69//296 74//296 136//296
f 101//297 146//297 130//297
f 110//298 68//298 111//298
f 25//299 27//299 50//299
f 22//300 58//300 93//300
f 93//301 149//301 102//301
f 40//302 42//302 114//302
f 96//303 142//303 127//303
f 34//304 33//304 150//304
f 150//305 33//305 78//305
f 142//306 42//306 132//306
f 1//1 63//38 117//307
f 91//308 138//308 137//308
f 32//309 81//309 77//309
f 4//310 109//178 116//177
f 3//286 140//285 62//311
f 91//312 137//312 123//312
f 47//23 49//25 80//313
f 45//314 13//314 25//314
f 40//315 115//315 129//315
f 129//316 115//316 55//316
f 140//317 63//317 62//317
f 144//318 151//318 148//318
f 145//319 151//319 134//319
f 111//320 139//320 27//320
f 110//321 74//321 68//321
f 101//322 103//322 146//322
f 106//323 130//323 135//323
f 106//324 95//324 130//324
f 104//325 148//325 151//325
f 95//326 105//326 138//326
f 135//327 147//327 69//327
f 65//328 103//328 102//328
f 92//329 91//329 123//329
f 104//330 145//330 105//330
f 104//331 151//331 145//331
f 75//332 100//332 76//332
f 135//333 69//333 136//333
f 136//334 74//334 73//334
f 52//335 55//335 73//335
f 69//336 68//336 74//336
f 1//337 85//337 9//337
f 124//338 123//338 113//338
f 147//339 146//339 103//339
f 67//340 69//340 147//340
f 110//341 26//341 112//341
f 65//342 149//342 93//342
f 110//343 112//343 53//343
f 67//344 147//344 103//344
